<?xml version="1.0" encoding="iso-8859-1"?>
<!-- Uploaded to: SVG Repo, www.svgrepo.com, Generator: SVG Repo Mixer Tools -->
<svg fill="#000000" version="1.1" id="Layer_1" xmlns="http://www.w3.org/2000/svg" xmlns:xlink="http://www.w3.org/1999/xlink" 
	 viewBox="0 0 511.999 511.999" xml:space="preserve">
<g>
	<g>
		
			<rect x="38.592" y="416.612" transform="matrix(0.7071 -0.7071 0.7071 0.7071 -286.3969 156.823)" width="15.023" height="15.023"/>
	</g>
</g>
<g>
	<g>
		
			<rect x="458.392" y="416.616" transform="matrix(0.7071 -0.7071 0.7071 0.7071 -163.4436 453.667)" width="15.022" height="15.023"/>
	</g>
</g>
<g>
	<g>
		<path d="M511.999,388.788l-93.633-93.633h-70.819l-80.924-80.924l95.163-95.163l39.681,39.681l26.997-116.982L311.482,68.763
			l39.681,39.681L256,203.608l-95.163-95.163l39.682-39.681L83.536,41.768l26.996,116.982l39.681-39.681l95.164,95.162
			l-80.924,80.924h-70.82L0,388.789h70.82l-14.089,14.089l10.622,10.623l14.088-14.088v70.819l93.633-93.633v-70.82l80.924-80.924
			l80.925,80.925v70.819l93.632,93.633v-70.819l14.088,14.088l10.625-10.624l-14.089-14.089H511.999z M341.272,77.307l67.149-15.496
			l-15.497,67.149l-20.515-20.516l15.581-15.581l-10.623-10.622l-15.581,15.58L341.272,77.307z M134.632,82.241l-10.621,10.623
			l15.58,15.581l-20.516,20.515l-15.496-67.149l67.149,15.496l-20.516,20.516L134.632,82.241z M36.269,373.766l24.281-24.281h49.574
			l-24.281,24.281H36.269z M120.748,409.681l-24.282,24.281v-49.573l24.282-24.282V409.681z M75.573,334.462l24.282-24.282h49.574
			l-24.282,24.282H75.573z M160.052,370.376l-24.282,24.281v-49.574l24.282-24.282V370.376z M376.229,394.657l-24.281-24.281
			v-49.573l24.281,24.281V394.657z M362.571,310.179h49.573l24.282,24.282h-49.573L362.571,310.179z M415.535,433.963
			l-24.281-24.281v-49.573l24.281,24.281V433.963z M426.157,373.766l-24.281-24.281h49.573l24.282,24.281H426.157z"/>
	</g>
</g>
</svg>